<?xml version="1.0" encoding="UTF-8"?>
<!DOCTYPE svg PUBLIC "-//W3C//DTD SVG 1.1//EN" "http://www.w3.org/Graphics/SVG/1.1/DTD/svg11.dtd">
<svg version="1.2" width="110.97mm" height="37.55mm" viewBox="4137 14968 11097 3755" preserveAspectRatio="xMidYMid" fill-rule="evenodd" stroke-width="28.222" stroke-linejoin="round" xmlns="http://www.w3.org/2000/svg" xmlns:ooo="http://xml.openoffice.org/svg/export" xmlns:xlink="http://www.w3.org/1999/xlink" xmlns:presentation="http://sun.com/xmlns/staroffice/presentation" xmlns:smil="http://www.w3.org/2001/SMIL20/" xmlns:anim="urn:oasis:names:tc:opendocument:xmlns:animation:1.0" xml:space="preserve">
 <defs class="ClipPathGroup">
  <clipPath id="presentation_clip_path" clipPathUnits="userSpaceOnUse">
   <rect x="4137" y="14968" width="11097" height="3755"/>
  </clipPath>
  <clipPath id="presentation_clip_path_shrink" clipPathUnits="userSpaceOnUse">
   <rect x="4148" y="14971" width="11075" height="3748"/>
  </clipPath>
 </defs>
 <defs class="TextShapeIndex">
  <g ooo:slide="id1" ooo:id-list="id3 id4 id5 id6 id7 id8 id9 id10"/>
 </defs>
 <defs class="EmbeddedBulletChars">
  <g id="bullet-char-template-57356" transform="scale(0.00048828125,-0.00048828125)">
   <path d="M 580,1141 L 1163,571 580,0 -4,571 580,1141 Z"/>
  </g>
  <g id="bullet-char-template-57354" transform="scale(0.00048828125,-0.00048828125)">
   <path d="M 8,1128 L 1137,1128 1137,0 8,0 8,1128 Z"/>
  </g>
  <g id="bullet-char-template-10146" transform="scale(0.00048828125,-0.00048828125)">
   <path d="M 174,0 L 602,739 174,1481 1456,739 174,0 Z M 1358,739 L 309,1346 659,739 1358,739 Z"/>
  </g>
  <g id="bullet-char-template-10132" transform="scale(0.00048828125,-0.00048828125)">
   <path d="M 2015,739 L 1276,0 717,0 1260,543 174,543 174,936 1260,936 717,1481 1274,1481 2015,739 Z"/>
  </g>
  <g id="bullet-char-template-10007" transform="scale(0.00048828125,-0.00048828125)">
   <path d="M 0,-2 C -7,14 -16,27 -25,37 L 356,567 C 262,823 215,952 215,954 215,979 228,992 255,992 264,992 276,990 289,987 310,991 331,999 354,1012 L 381,999 492,748 772,1049 836,1024 860,1049 C 881,1039 901,1025 922,1006 886,937 835,863 770,784 769,783 710,716 594,584 L 774,223 C 774,196 753,168 711,139 L 727,119 C 717,90 699,76 672,76 641,76 570,178 457,381 L 164,-76 C 142,-110 111,-127 72,-127 30,-127 9,-110 8,-76 1,-67 -2,-52 -2,-32 -2,-23 -1,-13 0,-2 Z"/>
  </g>
  <g id="bullet-char-template-10004" transform="scale(0.00048828125,-0.00048828125)">
   <path d="M 285,-33 C 182,-33 111,30 74,156 52,228 41,333 41,471 41,549 55,616 82,672 116,743 169,778 240,778 293,778 328,747 346,684 L 369,508 C 377,444 397,411 428,410 L 1163,1116 C 1174,1127 1196,1133 1229,1133 1271,1133 1292,1118 1292,1087 L 1292,965 C 1292,929 1282,901 1262,881 L 442,47 C 390,-6 338,-33 285,-33 Z"/>
  </g>
  <g id="bullet-char-template-9679" transform="scale(0.00048828125,-0.00048828125)">
   <path d="M 813,0 C 632,0 489,54 383,161 276,268 223,411 223,592 223,773 276,916 383,1023 489,1130 632,1184 813,1184 992,1184 1136,1130 1245,1023 1353,916 1407,772 1407,592 1407,412 1353,268 1245,161 1136,54 992,0 813,0 Z"/>
  </g>
  <g id="bullet-char-template-8226" transform="scale(0.00048828125,-0.00048828125)">
   <path d="M 346,457 C 273,457 209,483 155,535 101,586 74,649 74,723 74,796 101,859 155,911 209,963 273,989 346,989 419,989 480,963 531,910 582,859 608,796 608,723 608,648 583,586 532,535 482,483 420,457 346,457 Z"/>
  </g>
  <g id="bullet-char-template-8211" transform="scale(0.00048828125,-0.00048828125)">
   <path d="M -4,459 L 1135,459 1135,606 -4,606 -4,459 Z"/>
  </g>
  <g id="bullet-char-template-61548" transform="scale(0.00048828125,-0.00048828125)">
   <path d="M 173,740 C 173,903 231,1043 346,1159 462,1274 601,1332 765,1332 928,1332 1067,1274 1183,1159 1299,1043 1357,903 1357,740 1357,577 1299,437 1183,322 1067,206 928,148 765,148 601,148 462,206 346,322 231,437 173,577 173,740 Z"/>
  </g>
 </defs>
 <defs class="TextEmbeddedBitmaps"/>
 <g class="SlideGroup">
  <g>
   <g id="container-id1">
    <g id="id1" class="Slide" clip-path="url(#presentation_clip_path)">
     <g class="Page">
      <g class="com.sun.star.drawing.CustomShape">
       <g id="id3">
        <rect class="BoundingBox" stroke="none" fill="none" x="4136" y="15714" width="11099" height="3010"/>
        <path fill="rgb(234,233,233)" stroke="none" d="M 4163,15766 L 4521,15767 4521,16391 5331,16477 5331,15771 5690,15773 5690,17686 5331,17591 5331,16772 4521,16652 4521,17376 4163,17281 4163,15766 Z M 5889,15773 L 7174,15779 7174,16152 6248,16109 6248,16574 7136,16667 7136,17039 6248,16907 6248,17501 7197,17713 7197,18086 5889,17739 5889,15773 Z M 7683,16169 L 7683,16903 7947,16936 7984,16939 8019,16938 8052,16935 8083,16929 8097,16924 8111,16918 8124,16911 8137,16903 8149,16896 8161,16886 8172,16877 8182,16866 8191,16854 8200,16841 8209,16828 8217,16814 8224,16800 8230,16784 8236,16768 8242,16751 8250,16714 8256,16673 8261,16630 8261,16584 8261,16538 8256,16495 8250,16454 8242,16416 8236,16398 8230,16381 8224,16364 8217,16348 8209,16332 8200,16318 8191,16303 8182,16290 8172,16278 8161,16266 8149,16256 8137,16245 8124,16236 8111,16227 8083,16212 8052,16199 8019,16191 7984,16184 7947,16182 7683,16169 Z M 7324,15780 L 7947,15782 8028,15786 8104,15796 8175,15812 8241,15835 8303,15864 8332,15883 8359,15901 8385,15922 8411,15945 8434,15969 8457,15994 8478,16022 8499,16051 8517,16081 8534,16114 8550,16146 8565,16182 8578,16219 8590,16257 8600,16297 8610,16337 8623,16425 8632,16517 8634,16616 8632,16714 8623,16807 8610,16892 8600,16932 8590,16970 8578,17006 8565,17040 8550,17074 8534,17105 8517,17133 8499,17160 8478,17186 8457,17210 8434,17232 8411,17252 8385,17269 8359,17285 8332,17300 8303,17313 8241,17332 8175,17343 8104,17347 8028,17344 7947,17334 7683,17290 7683,18215 7324,18120 7324,15780 Z M 8734,15786 L 9092,15787 9092,16874 9685,16936 9902,16913 9902,15789 10261,15788 10261,18593 9902,18688 9902,17383 9685,17415 9092,17328 9092,18588 8734,18493 8734,15786 Z M 10460,15787 L 11745,15781 11745,16173 10819,16216 10819,16817 11707,16723 11707,17116 10819,17248 10819,18015 11768,17803 11768,18193 10460,18540 10460,15787 Z M 12922,16896 L 12924,16895 12925,16894 12927,16893 12929,16891 12931,16891 12933,16891 12935,16890 12937,16891 12942,16892 12948,16894 12954,16897 12960,16901 12974,16911 12990,16925 13008,16942 13028,16963 13050,16987 13070,17013 13091,17041 13111,17070 13152,17136 13193,17208 13487,17737 13097,17841 12844,17359 12822,17318 12801,17281 12781,17247 12760,17217 12740,17192 12721,17170 12701,17153 12692,17145 12682,17139 12673,17135 12663,17130 12642,17121 12619,17114 12594,17111 12567,17109 12538,17109 12508,17111 12476,17115 12254,17151 12254,18064 11895,18159 11895,15780 12518,15778 12600,15780 12677,15787 12749,15800 12816,15817 12877,15839 12906,15851 12933,15866 12960,15881 12985,15896 13009,15914 13031,15932 13052,15951 13072,15972 13090,15994 13107,16017 13122,16041 13137,16067 13150,16093 13161,16121 13172,16150 13181,16179 13194,16243 13203,16312 13205,16385 13204,16434 13200,16481 13193,16527 13183,16571 13170,16613 13154,16654 13135,16693 13113,16731 13090,16766 13066,16797 13044,16824 13032,16836 13020,16846 13008,16856 12995,16865 12983,16873 12972,16880 12960,16885 12947,16890 12935,16893 12922,16896 Z M 12254,16143 L 12254,16787 12518,16755 12557,16750 12594,16742 12627,16731 12659,16719 12687,16705 12700,16697 12713,16689 12725,16681 12736,16671 12746,16661 12756,16651 12766,16640 12774,16629 12783,16617 12789,16605 12796,16592 12803,16579 12809,16564 12814,16550 12818,16536 12822,16520 12827,16487 12832,16453 12833,16416 12832,16379 12827,16346 12822,16314 12818,16299 12814,16285 12809,16272 12803,16259 12796,16247 12789,16235 12783,16223 12774,16214 12766,16203 12756,16194 12746,16186 12736,16178 12725,16171 12713,16164 12700,16158 12687,16152 12659,16143 12627,16137 12594,16132 12557,16130 12518,16131 12254,16143 Z M 14687,16158 L 14668,16140 14649,16123 14629,16108 14607,16093 14585,16081 14563,16068 14540,16058 14515,16048 14490,16040 14464,16033 14438,16027 14410,16023 14382,16019 14352,16017 14292,16017 14232,16022 14202,16027 14174,16033 14146,16040 14120,16048 14094,16058 14068,16069 14044,16082 14020,16096 13997,16112 13975,16128 13954,16147 13934,16166 13913,16187 13895,16210 13877,16234 13860,16259 13845,16285 13830,16313 13805,16370 13784,16432 13767,16499 13756,16569 13750,16644 13747,16723 13750,16801 13756,16873 13767,16940 13784,17002 13805,17058 13830,17109 13845,17132 13860,17154 13877,17174 13895,17193 13913,17211 13934,17227 13954,17241 13975,17253 13997,17264 14020,17274 14044,17282 14068,17287 14094,17292 14119,17295 14146,17296 14174,17296 14202,17294 14231,17291 14292,17280 14352,17264 14382,17253 14410,17242 14437,17230 14464,17217 14490,17204 14515,17188 14540,17172 14562,17155 14585,17137 14607,17118 14629,17098 14649,17077 14668,17055 14687,17032 14705,17009 14722,16984 14737,16959 14751,16934 14777,16881 14797,16825 14813,16767 14825,16706 14832,16643 14835,16576 14832,16510 14825,16447 14814,16389 14798,16335 14777,16286 14751,16239 14737,16217 14722,16196 14705,16176 14687,16158 Z M 14292,15741 L 14394,15744 14490,15756 14535,15764 14580,15774 14624,15786 14666,15799 14707,15814 14746,15831 14785,15850 14822,15869 14857,15890 14892,15914 14925,15938 14957,15964 14988,15991 15016,16020 15042,16049 15067,16079 15089,16110 15109,16143 15145,16210 15172,16282 15191,16358 15202,16439 15207,16526 15202,16612 15191,16696 15172,16777 15145,16857 15109,16934 15089,16971 15067,17008 15042,17045 15016,17081 14988,17117 14957,17152 14925,17187 14892,17221 14858,17253 14822,17284 14785,17314 14746,17343 14707,17370 14666,17396 14624,17421 14580,17445 14535,17467 14490,17488 14394,17525 14292,17556 14190,17580 14094,17594 14048,17597 14002,17598 13959,17596 13917,17592 13875,17586 13835,17576 13797,17564 13760,17549 13724,17532 13689,17512 13656,17489 13624,17464 13594,17436 13566,17406 13539,17374 13515,17340 13493,17303 13472,17265 13437,17182 13410,17091 13390,16992 13378,16887 13374,16773 13378,16659 13389,16549 13410,16445 13437,16347 13472,16254 13493,16210 13515,16167 13539,16126 13566,16087 13594,16049 13624,16013 13656,15979 13689,15948 13724,15918 13760,15891 13797,15866 13835,15844 13875,15824 13917,15806 13959,15790 14002,15777 14047,15766 14094,15757 14190,15744 14292,15741 Z"/>
        <path fill="none" stroke="rgb(0,0,0)" stroke-width="53" stroke-linejoin="miter" d="M 4163,15766 L 4521,15767 4521,16391 5331,16477 5331,15771 5690,15773 5690,17686 5331,17591 5331,16772 4521,16652 4521,17376 4163,17281 4163,15766 Z"/>
        <path fill="none" stroke="rgb(0,0,0)" stroke-width="53" stroke-linejoin="miter" d="M 5889,15773 L 7174,15779 7174,16152 6248,16109 6248,16574 7136,16667 7136,17039 6248,16907 6248,17501 7197,17713 7197,18086 5889,17739 5889,15773 Z"/>
        <path fill="none" stroke="rgb(0,0,0)" stroke-width="53" stroke-linejoin="miter" d="M 7683,16169 L 7683,16903 7947,16936 7984,16939 8019,16938 8052,16935 8083,16929 8097,16924 8111,16918 8124,16911 8137,16903 8149,16896 8161,16886 8172,16877 8182,16866 8191,16854 8200,16841 8209,16828 8217,16814 8224,16800 8230,16784 8236,16768 8242,16751 8250,16714 8256,16673 8261,16630 8261,16584 8261,16538 8256,16495 8250,16454 8242,16416 8236,16398 8230,16381 8224,16364 8217,16348 8209,16332 8200,16318 8191,16303 8182,16290 8172,16278 8161,16266 8149,16256 8137,16245 8124,16236 8111,16227 8083,16212 8052,16199 8019,16191 7984,16184 7947,16182 7683,16169 Z"/>
        <path fill="none" stroke="rgb(0,0,0)" stroke-width="53" stroke-linejoin="miter" d="M 7324,15780 L 7947,15782 8028,15786 8104,15796 8175,15812 8241,15835 8303,15864 8332,15883 8359,15901 8385,15922 8411,15945 8434,15969 8457,15994 8478,16022 8499,16051 8517,16081 8534,16114 8550,16146 8565,16182 8578,16219 8590,16257 8600,16297 8610,16337 8623,16425 8632,16517 8634,16616 8632,16714 8623,16807 8610,16892 8600,16932 8590,16970 8578,17006 8565,17040 8550,17074 8534,17105 8517,17133 8499,17160 8478,17186 8457,17210 8434,17232 8411,17252 8385,17269 8359,17285 8332,17300 8303,17313 8241,17332 8175,17343 8104,17347 8028,17344 7947,17334 7683,17290 7683,18215 7324,18120 7324,15780 Z"/>
        <path fill="none" stroke="rgb(0,0,0)" stroke-width="53" stroke-linejoin="miter" d="M 8734,15786 L 9092,15787 9092,16874 9685,16936 9902,16913 9902,15789 10261,15788 10261,18593 9902,18688 9902,17383 9685,17415 9092,17328 9092,18588 8734,18493 8734,15786 Z"/>
        <path fill="none" stroke="rgb(0,0,0)" stroke-width="53" stroke-linejoin="miter" d="M 10460,15787 L 11745,15781 11745,16173 10819,16216 10819,16817 11707,16723 11707,17116 10819,17248 10819,18015 11768,17803 11768,18193 10460,18540 10460,15787 Z"/>
        <path fill="none" stroke="rgb(0,0,0)" stroke-width="53" stroke-linejoin="miter" d="M 12922,16896 L 12924,16895 12925,16894 12927,16893 12929,16891 12931,16891 12933,16891 12935,16890 12937,16891 12942,16892 12948,16894 12954,16897 12960,16901 12974,16911 12990,16925 13008,16942 13028,16963 13050,16987 13070,17013 13091,17041 13111,17070 13152,17136 13193,17208 13487,17737 13097,17841 12844,17359 12822,17318 12801,17281 12781,17247 12760,17217 12740,17192 12721,17170 12701,17153 12692,17145 12682,17139 12673,17135 12663,17130 12642,17121 12619,17114 12594,17111 12567,17109 12538,17109 12508,17111 12476,17115 12254,17151 12254,18064 11895,18159 11895,15780 12518,15778 12600,15780 12677,15787 12749,15800 12816,15817 12877,15839 12906,15851 12933,15866 12960,15881 12985,15896 13009,15914 13031,15932 13052,15951 13072,15972 13090,15994 13107,16017 13122,16041 13137,16067 13150,16093 13161,16121 13172,16150 13181,16179 13194,16243 13203,16312 13205,16385 13204,16434 13200,16481 13193,16527 13183,16571 13170,16613 13154,16654 13135,16693 13113,16731 13090,16766 13066,16797 13044,16824 13032,16836 13020,16846 13008,16856 12995,16865 12983,16873 12972,16880 12960,16885 12947,16890 12935,16893 12922,16896 Z"/>
        <path fill="none" stroke="rgb(0,0,0)" stroke-width="53" stroke-linejoin="miter" d="M 12254,16143 L 12254,16787 12518,16755 12557,16750 12594,16742 12627,16731 12659,16719 12687,16705 12700,16697 12713,16689 12725,16681 12736,16671 12746,16661 12756,16651 12766,16640 12774,16629 12783,16617 12789,16605 12796,16592 12803,16579 12809,16564 12814,16550 12818,16536 12822,16520 12827,16487 12832,16453 12833,16416 12832,16379 12827,16346 12822,16314 12818,16299 12814,16285 12809,16272 12803,16259 12796,16247 12789,16235 12783,16223 12774,16214 12766,16203 12756,16194 12746,16186 12736,16178 12725,16171 12713,16164 12700,16158 12687,16152 12659,16143 12627,16137 12594,16132 12557,16130 12518,16131 12254,16143 Z"/>
        <path fill="none" stroke="rgb(0,0,0)" stroke-width="53" stroke-linejoin="miter" d="M 14687,16158 L 14668,16140 14649,16123 14629,16108 14607,16093 14585,16081 14563,16068 14540,16058 14515,16048 14490,16040 14464,16033 14438,16027 14410,16023 14382,16019 14352,16017 14292,16017 14232,16022 14202,16027 14174,16033 14146,16040 14120,16048 14094,16058 14068,16069 14044,16082 14020,16096 13997,16112 13975,16128 13954,16147 13934,16166 13913,16187 13895,16210 13877,16234 13860,16259 13845,16285 13830,16313 13805,16370 13784,16432 13767,16499 13756,16569 13750,16644 13747,16723 13750,16801 13756,16873 13767,16940 13784,17002 13805,17058 13830,17109 13845,17132 13860,17154 13877,17174 13895,17193 13913,17211 13934,17227 13954,17241 13975,17253 13997,17264 14020,17274 14044,17282 14068,17287 14094,17292 14119,17295 14146,17296 14174,17296 14202,17294 14231,17291 14292,17280 14352,17264 14382,17253 14410,17242 14437,17230 14464,17217 14490,17204 14515,17188 14540,17172 14562,17155 14585,17137 14607,17118 14629,17098 14649,17077 14668,17055 14687,17032 14705,17009 14722,16984 14737,16959 14751,16934 14777,16881 14797,16825 14813,16767 14825,16706 14832,16643 14835,16576 14832,16510 14825,16447 14814,16389 14798,16335 14777,16286 14751,16239 14737,16217 14722,16196 14705,16176 14687,16158 Z"/>
        <path fill="none" stroke="rgb(0,0,0)" stroke-width="53" stroke-linejoin="miter" d="M 14292,15741 L 14394,15744 14490,15756 14535,15764 14580,15774 14624,15786 14666,15799 14707,15814 14746,15831 14785,15850 14822,15869 14857,15890 14892,15914 14925,15938 14957,15964 14988,15991 15016,16020 15042,16049 15067,16079 15089,16110 15109,16143 15145,16210 15172,16282 15191,16358 15202,16439 15207,16526 15202,16612 15191,16696 15172,16777 15145,16857 15109,16934 15089,16971 15067,17008 15042,17045 15016,17081 14988,17117 14957,17152 14925,17187 14892,17221 14858,17253 14822,17284 14785,17314 14746,17343 14707,17370 14666,17396 14624,17421 14580,17445 14535,17467 14490,17488 14394,17525 14292,17556 14190,17580 14094,17594 14048,17597 14002,17598 13959,17596 13917,17592 13875,17586 13835,17576 13797,17564 13760,17549 13724,17532 13689,17512 13656,17489 13624,17464 13594,17436 13566,17406 13539,17374 13515,17340 13493,17303 13472,17265 13437,17182 13410,17091 13390,16992 13378,16887 13374,16773 13378,16659 13389,16549 13410,16445 13437,16347 13472,16254 13493,16210 13515,16167 13539,16126 13566,16087 13594,16049 13624,16013 13656,15979 13689,15948 13724,15918 13760,15891 13797,15866 13835,15844 13875,15824 13917,15806 13959,15790 14002,15777 14047,15766 14094,15757 14190,15744 14292,15741 Z"/>
       </g>
      </g>
      <g class="com.sun.star.drawing.CustomShape">
       <g id="id4">
        <rect class="BoundingBox" stroke="none" fill="none" x="13440" y="15890" width="1651" height="1677"/>
        <path fill="rgb(234,233,233)" stroke="none" d="M 14485,15891 C 14934,15884 15182,16242 15058,16717 14933,17192 14494,17559 14045,17565 13596,17572 13349,17214 13473,16739 13598,16264 14036,15897 14485,15891 Z M 13693,15902 L 13693,15902 Z M 14840,17555 L 14840,17555 Z"/>
       </g>
      </g>
      <g class="com.sun.star.drawing.CustomShape">
       <g id="id5">
        <rect class="BoundingBox" stroke="none" fill="none" x="13536" y="16139" width="1484" height="1021"/>
        <path fill="none" stroke="rgb(5,128,225)" stroke-width="53" stroke-linejoin="round" d="M 14178,16489 C 14528,16232 14837,16104 14892,16195 14948,16286 14724,16552 14375,16810 14026,17068 13716,17194 13661,17103 13605,17012 13829,16747 14178,16489 Z"/>
       </g>
      </g>
      <g class="com.sun.star.drawing.CustomShape">
       <g id="id6">
        <rect class="BoundingBox" stroke="none" fill="none" x="14039" y="15875" width="463" height="1540"/>
        <path fill="none" stroke="rgb(5,128,225)" stroke-width="53" stroke-linejoin="round" d="M 14073,16679 C 14077,16278 14165,15956 14276,15937 14387,15918 14470,16210 14466,16611 14462,17012 14373,17334 14262,17353 14151,17372 14069,17080 14073,16679 Z"/>
       </g>
      </g>
      <g class="com.sun.star.drawing.CustomShape">
       <g id="id7">
        <rect class="BoundingBox" stroke="none" fill="none" x="13642" y="16176" width="1264" height="944"/>
        <path fill="none" stroke="rgb(5,128,225)" stroke-width="53" stroke-linejoin="round" d="M 14170,16828 C 13833,16679 13620,16487 13678,16385 13737,16283 14040,16320 14377,16469 14714,16619 14927,16811 14869,16913 14810,17015 14507,16978 14170,16828 Z"/>
       </g>
      </g>
      <g class="com.sun.star.drawing.CustomShape">
       <g id="id8">
        <rect class="BoundingBox" stroke="none" fill="none" x="14181" y="16559" width="195" height="182"/>
        <path fill="rgb(5,128,225)" stroke="none" d="M 14277,16570 C 14326,16562 14365,16589 14365,16634 14365,16679 14326,16721 14277,16729 14228,16738 14190,16709 14190,16664 14190,16619 14228,16578 14277,16570 Z M 14190,16585 L 14190,16585 Z M 14366,16715 L 14366,16715 Z"/>
        <path fill="none" stroke="rgb(5,128,225)" stroke-width="18" stroke-linejoin="round" d="M 14277,16570 C 14326,16562 14365,16589 14365,16634 14365,16679 14326,16721 14277,16729 14228,16738 14190,16709 14190,16664 14190,16619 14228,16578 14277,16570 Z"/>
       </g>
      </g>
      <g class="com.sun.star.drawing.CustomShape">
       <g id="id9">
        <rect class="BoundingBox" stroke="none" fill="none" x="4392" y="14967" width="10343" height="618"/>
        <path fill="rgb(5,128,225)" stroke="none" d="M 4419,15557 L 14707,15557 13251,14994 5874,14994 4419,15557 Z M 4419,15557 L 4419,15557 Z M 14707,14994 L 14707,14994 Z"/>
        <path fill="none" stroke="rgb(0,0,0)" stroke-width="53" stroke-linejoin="round" d="M 4419,15557 L 14707,15557 13251,14994 5874,14994 4419,15557 Z"/>
       </g>
      </g>
      <g class="com.sun.star.drawing.CustomShape">
       <g id="id10">
        <rect class="BoundingBox" stroke="none" fill="none" x="7966" y="15156" width="3318" height="320"/>
        <path fill="rgb(238,238,238)" stroke="none" d="M 8230,15399 L 8339,15250 8342,15246 8346,15242 8349,15238 8352,15234 8364,15218 8367,15214 8370,15211 8373,15207 8376,15203 8372,15207 8368,15211 8359,15219 8343,15234 8339,15237 8335,15241 8331,15244 8327,15247 8140,15399 8112,15399 8164,15247 8164,15246 8165,15245 8165,15243 8166,15242 8169,15235 8173,15227 8176,15220 8184,15203 8177,15212 8173,15216 8171,15220 8157,15236 8146,15250 8020,15399 7986,15399 8178,15176 8224,15176 8168,15330 8168,15332 8167,15334 8166,15336 8165,15339 8165,15340 8163,15341 8162,15344 8162,15346 8161,15349 8156,15359 8154,15363 8154,15364 8153,15365 8153,15366 8152,15366 8153,15366 8153,15365 8154,15364 8156,15363 8160,15359 8171,15349 8184,15339 8187,15336 8189,15334 8194,15330 8381,15176 8425,15176 8266,15399 8230,15399 Z M 8383,15402 L 8374,15402 8367,15402 8364,15401 8361,15400 8358,15399 8355,15399 8353,15398 8350,15397 8349,15395 8346,15395 8345,15393 8344,15392 8343,15390 8342,15388 8341,15387 8340,15385 8339,15383 8339,15381 8339,15379 8339,15377 8340,15373 8341,15368 8344,15362 8346,15357 8350,15351 8353,15347 8356,15343 8359,15339 8363,15336 8366,15332 8370,15330 8374,15326 8378,15323 8381,15321 8385,15319 8388,15317 8393,15314 8397,15312 8401,15310 8406,15308 8410,15307 8414,15305 8418,15304 8422,15303 8427,15301 8430,15301 8435,15299 8440,15299 8445,15298 8453,15297 8462,15296 8471,15296 8479,15296 8527,15295 8533,15285 8536,15281 8537,15276 8539,15274 8539,15272 8540,15270 8540,15267 8541,15264 8541,15263 8542,15261 8542,15259 8541,15258 8541,15257 8540,15257 8540,15256 8540,15256 8538,15254 8538,15254 8537,15252 8536,15252 8535,15251 8533,15250 8531,15250 8530,15249 8528,15248 8526,15248 8525,15247 8522,15247 8520,15247 8518,15247 8515,15247 8512,15247 8509,15247 8507,15247 8503,15247 8493,15248 8491,15248 8489,15249 8487,15250 8485,15250 8484,15250 8481,15251 8480,15252 8477,15252 8476,15253 8474,15254 8472,15255 8470,15256 8467,15257 8466,15258 8462,15261 8460,15262 8459,15263 8457,15265 8455,15267 8454,15268 8451,15270 8451,15272 8449,15274 8414,15271 8420,15266 8424,15262 8427,15259 8429,15257 8432,15255 8435,15253 8437,15251 8441,15249 8443,15247 8446,15245 8450,15243 8453,15241 8456,15239 8459,15238 8463,15236 8466,15235 8470,15234 8474,15232 8478,15232 8482,15230 8485,15229 8490,15229 8494,15228 8498,15227 8502,15227 8508,15226 8511,15226 8517,15225 8527,15225 8536,15225 8544,15226 8551,15227 8558,15229 8560,15230 8564,15231 8566,15232 8568,15234 8570,15235 8573,15236 8574,15238 8575,15240 8576,15242 8577,15244 8578,15246 8578,15248 8579,15253 8579,15258 8577,15263 8576,15270 8573,15276 8569,15283 8526,15356 8524,15359 8522,15362 8521,15365 8520,15367 8520,15370 8518,15372 8518,15374 8519,15375 8518,15376 8519,15377 8519,15377 8519,15378 8520,15379 8521,15379 8521,15379 8521,15380 8522,15380 8523,15381 8524,15381 8526,15381 8527,15381 8528,15381 8530,15381 8531,15381 8538,15381 8538,15381 8538,15381 8539,15381 8539,15381 8539,15381 8540,15381 8542,15381 8543,15380 8544,15380 8533,15398 8518,15400 8516,15400 8515,15400 8511,15401 8508,15401 8506,15401 8503,15401 8500,15401 8498,15401 8496,15401 8494,15400 8492,15400 8490,15399 8488,15399 8486,15399 8485,15398 8484,15397 8483,15397 8481,15396 8481,15395 8479,15394 8479,15393 8478,15392 8478,15390 8477,15390 8477,15388 8477,15387 8478,15386 8478,15384 8477,15383 8478,15381 8478,15380 8479,15378 8479,15377 8480,15375 8480,15373 8482,15370 8483,15368 8484,15366 8483,15366 8477,15370 8472,15374 8461,15381 8455,15384 8450,15387 8438,15393 8435,15393 8431,15395 8424,15397 8418,15398 8412,15399 8408,15400 8404,15401 8401,15401 8397,15402 8394,15402 8390,15402 8386,15402 8383,15402 Z M 8404,15381 L 8408,15381 8413,15381 8417,15380 8422,15379 8426,15379 8431,15378 8434,15377 8438,15376 8443,15375 8447,15373 8450,15372 8454,15370 8457,15369 8461,15367 8464,15366 8468,15364 8471,15361 8475,15359 8478,15357 8480,15355 8484,15353 8486,15350 8489,15348 8491,15346 8496,15342 8497,15339 8500,15337 8501,15335 8503,15333 8505,15331 8506,15329 8514,15315 8476,15315 8470,15315 8462,15316 8450,15317 8447,15317 8444,15317 8441,15318 8438,15319 8435,15319 8432,15320 8429,15321 8427,15322 8424,15323 8421,15324 8418,15326 8415,15327 8412,15328 8410,15330 8407,15331 8405,15333 8402,15335 8400,15337 8397,15339 8395,15341 8393,15343 8391,15346 8389,15349 8387,15352 8384,15355 8384,15358 8381,15361 8381,15364 8381,15367 8380,15368 8381,15369 8381,15370 8381,15371 8382,15373 8382,15373 8383,15375 8385,15376 8385,15377 8386,15377 8388,15378 8389,15378 8390,15379 8391,15379 8393,15379 8395,15380 8396,15380 8398,15381 8400,15381 8404,15381 Z M 8636,15313 L 8633,15320 8630,15327 8624,15340 8622,15346 8622,15349 8622,15352 8622,15354 8621,15357 8622,15359 8622,15361 8623,15363 8623,15365 8624,15367 8625,15369 8627,15370 8628,15372 8629,15373 8629,15373 8631,15374 8632,15375 8633,15376 8636,15377 8639,15378 8642,15379 8644,15379 8648,15379 8650,15380 8655,15380 8659,15380 8665,15379 8670,15379 8672,15379 8674,15378 8676,15377 8678,15377 8681,15376 8683,15375 8685,15375 8687,15374 8691,15372 8693,15370 8696,15370 8697,15368 8699,15367 8704,15364 8707,15361 8710,15358 8714,15355 8717,15350 8720,15346 8755,15348 8752,15353 8749,15356 8748,15359 8746,15361 8744,15364 8740,15366 8738,15368 8735,15371 8733,15373 8729,15375 8726,15378 8723,15380 8720,15382 8717,15384 8714,15386 8709,15388 8707,15389 8703,15390 8698,15393 8694,15394 8690,15395 8686,15396 8682,15397 8678,15399 8673,15399 8668,15400 8664,15401 8659,15402 8654,15402 8649,15402 8645,15402 8638,15402 8633,15402 8626,15402 8621,15401 8617,15399 8611,15399 8608,15397 8603,15395 8600,15394 8597,15392 8593,15390 8591,15388 8590,15385 8588,15382 8586,15379 8584,15377 8583,15374 8583,15370 8582,15367 8582,15364 8582,15360 8583,15357 8583,15352 8584,15348 8587,15340 8589,15332 8593,15323 8598,15314 8603,15305 8609,15297 8611,15294 8614,15290 8617,15287 8620,15283 8625,15277 8631,15271 8633,15268 8636,15265 8640,15263 8642,15260 8645,15258 8648,15255 8651,15253 8654,15251 8657,15249 8660,15247 8663,15245 8666,15243 8669,15242 8672,15241 8675,15239 8677,15238 8680,15236 8683,15235 8686,15234 8689,15233 8691,15232 8695,15231 8698,15230 8701,15229 8707,15228 8713,15227 8724,15226 8730,15225 8736,15225 8740,15225 8743,15225 8747,15226 8751,15226 8754,15227 8757,15227 8761,15228 8764,15229 8766,15230 8769,15231 8772,15232 8774,15234 8775,15235 8778,15236 8780,15238 8781,15240 8782,15242 8783,15243 8785,15245 8786,15247 8787,15250 8788,15252 8788,15254 8789,15256 8789,15258 8790,15261 8790,15263 8790,15266 8788,15271 8788,15276 8751,15279 8752,15275 8753,15272 8753,15269 8753,15265 8753,15263 8752,15261 8751,15258 8749,15256 8748,15255 8747,15254 8746,15253 8745,15252 8744,15252 8742,15251 8741,15250 8739,15250 8737,15249 8735,15249 8732,15248 8728,15247 8723,15247 8719,15247 8716,15247 8712,15248 8709,15248 8705,15249 8702,15250 8699,15251 8696,15252 8693,15253 8690,15254 8687,15255 8685,15256 8683,15258 8679,15260 8678,15261 8675,15263 8672,15265 8669,15267 8667,15270 8665,15272 8662,15275 8660,15278 8654,15284 8646,15298 8641,15305 8636,15313 Z M 8868,15257 L 8870,15255 8872,15253 8875,15251 8877,15250 8880,15247 8881,15246 8884,15244 8887,15243 8889,15241 8891,15240 8893,15238 8896,15237 8897,15236 8900,15234 8902,15234 8905,15232 8907,15232 8910,15230 8912,15229 8914,15229 8917,15228 8919,15228 8925,15227 8927,15226 8930,15226 8932,15225 8935,15225 8939,15225 8941,15225 8944,15225 8947,15225 8952,15225 8955,15225 8959,15225 8964,15226 8967,15227 8970,15227 8974,15228 8976,15229 8979,15231 8982,15232 8983,15233 8985,15235 8987,15236 8988,15238 8990,15240 8991,15242 8992,15244 8992,15246 8994,15248 8994,15250 8994,15253 8994,15256 8994,15261 8993,15266 8992,15272 8991,15279 8989,15285 8948,15399 8911,15399 8952,15290 8953,15285 8955,15281 8956,15278 8956,15276 8957,15274 8957,15272 8957,15270 8957,15267 8957,15265 8957,15264 8957,15262 8957,15261 8956,15259 8956,15258 8955,15256 8955,15255 8953,15254 8953,15253 8951,15252 8949,15251 8948,15250 8946,15250 8945,15249 8944,15249 8942,15248 8941,15247 8938,15247 8935,15247 8932,15247 8929,15247 8926,15247 8923,15247 8920,15247 8917,15247 8914,15247 8911,15248 8908,15249 8905,15250 8902,15250 8900,15251 8897,15252 8894,15254 8891,15255 8889,15256 8886,15258 8885,15259 8882,15261 8879,15263 8878,15264 8875,15266 8873,15268 8870,15270 8868,15272 8864,15277 8861,15282 8857,15287 8855,15290 8853,15292 8852,15295 8851,15298 8807,15399 8771,15399 8877,15165 8908,15165 8882,15225 8878,15236 8873,15245 8873,15246 8872,15247 8872,15250 8870,15252 8869,15252 8869,15253 8867,15257 8868,15257 Z M 9071,15191 L 9080,15165 9112,15165 9104,15191 9071,15191 Z M 9004,15399 L 9059,15228 9093,15228 9041,15399 9004,15399 Z M 9237,15399 L 9259,15290 9260,15284 9260,15279 9261,15274 9261,15270 9261,15265 9260,15264 9259,15262 9259,15261 9258,15259 9257,15258 9256,15256 9256,15255 9254,15254 9253,15253 9251,15252 9250,15251 9249,15250 9247,15250 9245,15249 9243,15248 9240,15248 9238,15247 9236,15247 9233,15247 9231,15247 9228,15247 9225,15247 9222,15247 9219,15247 9216,15247 9213,15247 9211,15248 9208,15249 9205,15250 9203,15250 9200,15251 9197,15252 9195,15254 9192,15255 9190,15256 9188,15258 9186,15259 9184,15261 9182,15262 9180,15264 9177,15266 9176,15267 9173,15270 9172,15272 9170,15274 9169,15277 9165,15283 9165,15285 9163,15288 9162,15290 9160,15294 9159,15300 9133,15399 9097,15399 9134,15265 9138,15253 9138,15252 9138,15250 9139,15247 9139,15245 9139,15243 9140,15242 9142,15233 9143,15228 9174,15228 9174,15228 9174,15228 9174,15229 9175,15229 9175,15229 9175,15229 9175,15229 9175,15230 9174,15231 9174,15232 9172,15241 9172,15242 9172,15243 9172,15244 9172,15245 9171,15247 9171,15250 9169,15257 9170,15257 9173,15254 9176,15250 9178,15248 9179,15247 9182,15245 9183,15244 9185,15243 9187,15241 9189,15240 9191,15238 9193,15237 9195,15236 9197,15235 9200,15234 9202,15233 9204,15232 9206,15231 9208,15230 9210,15229 9213,15229 9218,15227 9221,15227 9223,15226 9226,15226 9229,15225 9232,15225 9235,15225 9239,15225 9242,15225 9246,15225 9250,15225 9254,15225 9258,15225 9261,15226 9265,15227 9267,15227 9270,15228 9273,15229 9276,15230 9278,15232 9280,15233 9282,15234 9284,15236 9286,15237 9288,15239 9290,15241 9291,15243 9292,15245 9293,15247 9294,15250 9295,15252 9295,15255 9296,15258 9296,15261 9296,15264 9297,15267 9296,15270 9296,15277 9295,15285 9274,15399 9237,15399 Z M 9367,15320 L 9366,15323 9366,15326 9366,15332 9367,15339 9367,15344 9369,15350 9371,15355 9373,15357 9374,15359 9376,15361 9377,15364 9378,15366 9380,15368 9382,15369 9384,15371 9387,15373 9389,15374 9391,15375 9394,15377 9397,15377 9399,15379 9402,15379 9407,15380 9410,15380 9413,15381 9417,15381 9422,15381 9427,15381 9433,15380 9438,15380 9442,15379 9448,15378 9450,15377 9452,15377 9455,15376 9456,15375 9458,15374 9460,15373 9464,15371 9467,15369 9470,15367 9473,15365 9475,15363 9477,15360 9480,15357 9481,15355 9511,15362 9509,15366 9508,15369 9504,15373 9502,15376 9501,15378 9498,15379 9496,15381 9494,15383 9492,15384 9489,15386 9487,15388 9484,15389 9481,15390 9478,15392 9475,15393 9473,15394 9468,15395 9465,15397 9461,15397 9457,15399 9452,15399 9449,15400 9445,15401 9440,15402 9435,15402 9430,15402 9425,15402 9420,15402 9408,15402 9401,15402 9396,15401 9390,15400 9386,15399 9381,15398 9377,15397 9372,15395 9368,15393 9364,15391 9360,15389 9357,15387 9353,15385 9350,15382 9347,15379 9345,15377 9342,15374 9340,15370 9339,15367 9334,15359 9332,15352 9331,15343 9331,15333 9330,15323 9332,15312 9333,15307 9335,15301 9338,15290 9341,15281 9346,15272 9348,15267 9351,15264 9354,15260 9357,15256 9360,15254 9363,15250 9367,15247 9370,15245 9373,15242 9377,15240 9381,15238 9384,15236 9388,15234 9393,15232 9397,15231 9401,15229 9405,15228 9409,15227 9414,15227 9418,15226 9423,15226 9427,15225 9432,15225 9436,15225 9442,15225 9448,15226 9454,15226 9460,15227 9465,15228 9469,15229 9474,15231 9476,15232 9478,15232 9482,15234 9486,15236 9490,15238 9492,15241 9495,15243 9498,15245 9501,15248 9504,15251 9506,15254 9508,15257 9512,15264 9514,15272 9517,15280 9519,15288 9520,15297 9521,15306 9520,15316 9520,15320 9367,15320 Z M 9486,15298 L 9487,15291 9486,15285 9486,15279 9484,15274 9483,15271 9482,15269 9481,15267 9479,15265 9479,15263 9477,15261 9475,15259 9473,15258 9469,15255 9467,15254 9465,15253 9463,15252 9460,15251 9459,15250 9457,15249 9454,15248 9451,15247 9449,15247 9446,15247 9440,15246 9434,15246 9432,15246 9430,15246 9427,15247 9425,15247 9421,15247 9416,15249 9411,15250 9406,15252 9402,15254 9398,15256 9394,15258 9392,15260 9390,15262 9387,15264 9385,15266 9383,15268 9382,15270 9379,15273 9376,15279 9373,15285 9372,15291 9370,15298 9486,15298 Z M 9686,15399 L 9678,15176 9711,15176 9722,15374 9867,15374 9870,15399 9686,15399 Z M 9925,15320 L 9926,15323 9926,15326 9928,15332 9931,15339 9933,15344 9937,15350 9941,15355 9943,15357 9945,15359 9947,15361 9949,15364 9951,15366 9954,15368 9956,15369 9958,15371 9962,15373 9964,15374 9967,15375 9970,15377 9974,15377 9976,15379 9979,15379 9984,15380 9987,15380 9990,15381 9995,15381 9999,15381 10005,15381 10010,15380 10015,15380 10019,15379 10024,15378 10026,15377 10028,15377 10030,15376 10031,15375 10033,15374 10035,15373 10038,15371 10041,15369 10043,15367 10045,15365 10047,15363 10048,15360 10050,15357 10050,15355 10083,15362 10082,15366 10081,15369 10079,15373 10078,15376 10077,15378 10075,15379 10074,15381 10072,15383 10070,15384 10068,15386 10067,15388 10064,15389 10062,15390 10059,15392 10056,15393 10054,15394 10050,15395 10047,15397 10044,15397 10040,15399 10036,15399 10032,15400 10028,15401 10024,15402 10019,15402 10014,15402 10009,15402 10003,15402 9991,15402 9985,15402 9979,15401 9974,15400 9969,15399 9963,15398 9959,15397 9954,15395 9949,15393 9945,15391 9940,15389 9936,15387 9932,15385 9928,15382 9924,15379 9921,15377 9917,15374 9914,15370 9912,15367 9905,15359 9901,15352 9896,15343 9894,15333 9890,15323 9888,15312 9888,15307 9888,15301 9887,15290 9888,15281 9889,15272 9891,15267 9892,15264 9894,15260 9896,15256 9898,15254 9900,15250 9903,15247 9905,15245 9908,15242 9910,15240 9914,15238 9917,15236 9920,15234 9924,15232 9928,15231 9932,15229 9935,15228 9939,15227 9944,15227 9948,15226 9953,15226 9957,15225 9961,15225 9965,15225 9971,15225 9977,15226 9983,15226 9989,15227 9995,15228 10000,15229 10005,15231 10007,15232 10010,15232 10014,15234 10018,15236 10023,15238 10026,15241 10030,15243 10034,15245 10037,15248 10041,15251 10045,15254 10047,15257 10053,15264 10058,15272 10063,15280 10067,15288 10072,15297 10075,15306 10078,15316 10079,15320 9925,15320 Z M 10038,15298 L 10036,15291 10034,15285 10031,15279 10028,15274 10026,15271 10025,15269 10023,15267 10021,15265 10019,15263 10017,15261 10015,15259 10012,15258 10008,15255 10005,15254 10003,15253 10001,15252 9998,15251 9996,15250 9993,15249 9990,15248 9987,15247 9985,15247 9982,15247 9976,15246 9970,15246 9968,15246 9966,15246 9963,15247 9961,15247 9957,15247 9952,15249 9948,15250 9944,15252 9940,15254 9936,15256 9934,15258 9932,15260 9930,15262 9929,15264 9927,15266 9925,15268 9925,15270 9923,15273 9922,15279 9921,15285 9921,15291 9921,15298 10038,15298 Z M 10203,15402 L 10194,15402 10187,15402 10183,15401 10180,15400 10176,15399 10173,15399 10169,15398 10166,15397 10163,15395 10160,15395 10157,15393 10154,15392 10152,15390 10149,15388 10147,15387 10144,15385 10141,15383 10139,15381 10137,15379 10135,15377 10132,15373 10128,15368 10126,15362 10123,15357 10122,15351 10120,15347 10121,15343 10119,15339 10119,15336 10120,15332 10121,15330 10121,15326 10122,15323 10124,15321 10125,15319 10127,15317 10129,15314 10131,15312 10133,15310 10136,15308 10138,15307 10141,15305 10144,15304 10147,15303 10150,15301 10153,15301 10157,15299 10161,15299 10165,15298 10173,15297 10181,15296 10189,15296 10197,15296 10244,15295 10241,15285 10239,15281 10236,15276 10236,15274 10234,15272 10233,15270 10231,15267 10228,15264 10228,15263 10226,15261 10225,15259 10223,15258 10222,15257 10221,15257 10221,15256 10219,15256 10217,15254 10216,15254 10213,15252 10212,15252 10210,15251 10207,15250 10205,15250 10203,15249 10201,15248 10199,15248 10196,15247 10193,15247 10191,15247 10189,15247 10186,15247 10183,15247 10180,15247 10178,15247 10174,15247 10166,15248 10164,15248 10162,15249 10161,15250 10159,15250 10158,15250 10156,15251 10156,15252 10154,15252 10153,15253 10151,15254 10151,15255 10150,15256 10148,15257 10147,15258 10146,15261 10146,15262 10146,15263 10145,15265 10145,15267 10146,15268 10145,15270 10146,15272 10146,15274 10109,15271 10109,15266 10109,15262 10110,15259 10110,15257 10111,15255 10112,15253 10112,15251 10114,15249 10114,15247 10115,15245 10117,15243 10118,15241 10120,15239 10121,15238 10124,15236 10126,15235 10128,15234 10131,15232 10135,15232 10137,15230 10140,15229 10144,15229 10147,15228 10150,15227 10154,15227 10159,15226 10163,15226 10167,15225 10177,15225 10186,15225 10195,15226 10204,15227 10212,15229 10215,15230 10220,15231 10223,15232 10227,15234 10230,15235 10234,15236 10236,15238 10240,15240 10243,15242 10245,15244 10248,15246 10251,15248 10256,15253 10260,15258 10264,15263 10269,15270 10272,15276 10275,15283 10302,15356 10303,15359 10304,15362 10306,15365 10307,15367 10309,15370 10310,15372 10312,15374 10313,15375 10314,15376 10315,15377 10316,15377 10316,15378 10318,15379 10319,15379 10320,15379 10320,15380 10322,15380 10323,15381 10324,15381 10326,15381 10327,15381 10329,15381 10331,15381 10332,15381 10338,15381 10338,15381 10338,15381 10339,15381 10339,15381 10339,15381 10340,15381 10342,15381 10342,15380 10343,15380 10350,15398 10337,15400 10335,15400 10333,15400 10330,15401 10327,15401 10325,15401 10323,15401 10320,15401 10317,15401 10315,15401 10313,15400 10311,15400 10308,15399 10306,15399 10303,15399 10302,15398 10300,15397 10298,15397 10296,15396 10294,15395 10292,15394 10290,15393 10289,15392 10287,15390 10286,15390 10285,15388 10283,15387 10282,15386 10281,15384 10279,15383 10279,15381 10277,15380 10277,15378 10275,15377 10274,15375 10272,15373 10272,15370 10271,15368 10270,15366 10269,15366 10267,15370 10265,15374 10262,15381 10258,15384 10256,15387 10249,15393 10247,15393 10244,15395 10240,15397 10235,15398 10230,15399 10227,15400 10224,15401 10220,15401 10217,15402 10214,15402 10211,15402 10207,15402 10203,15402 Z M 10204,15381 L 10208,15381 10213,15381 10217,15380 10221,15379 10224,15379 10228,15378 10231,15377 10234,15376 10237,15375 10239,15373 10241,15372 10244,15370 10246,15369 10248,15367 10250,15366 10251,15364 10253,15361 10254,15359 10255,15357 10256,15355 10257,15353 10257,15350 10258,15348 10258,15346 10259,15342 10258,15339 10258,15337 10257,15335 10258,15333 10257,15331 10256,15329 10251,15315 10213,15315 10206,15315 10199,15316 10188,15317 10185,15317 10183,15317 10180,15318 10178,15319 10175,15319 10174,15320 10172,15321 10170,15322 10168,15323 10166,15324 10165,15326 10163,15327 10161,15328 10161,15330 10159,15331 10159,15333 10158,15335 10158,15337 10157,15339 10157,15341 10158,15343 10157,15346 10158,15349 10159,15352 10160,15355 10162,15358 10163,15361 10165,15364 10168,15367 10168,15368 10169,15369 10171,15370 10172,15371 10174,15373 10175,15373 10177,15375 10180,15376 10181,15377 10183,15377 10185,15378 10186,15378 10188,15379 10190,15379 10192,15379 10194,15380 10195,15380 10198,15381 10200,15381 10204,15381 Z M 10380,15399 L 10327,15267 10322,15256 10322,15255 10321,15254 10320,15252 10318,15249 10318,15247 10317,15246 10313,15236 10312,15234 10311,15232 10311,15231 10310,15229 10309,15229 10309,15228 10341,15228 10341,15229 10342,15230 10343,15231 10343,15232 10344,15234 10345,15236 10346,15238 10347,15241 10347,15242 10348,15243 10349,15244 10350,15245 10354,15255 10357,15263 10358,15263 10358,15258 10357,15254 10358,15250 10358,15246 10359,15245 10359,15243 10359,15241 10360,15239 10361,15238 10361,15236 10362,15235 10363,15234 10363,15232 10365,15232 10366,15231 10367,15229 10369,15229 10369,15228 10373,15227 10374,15226 10376,15226 10378,15225 10380,15225 10383,15225 10385,15225 10387,15225 10390,15225 10391,15225 10392,15225 10393,15225 10394,15225 10396,15225 10398,15225 10401,15226 10402,15226 10403,15226 10403,15226 10404,15226 10416,15252 10415,15252 10414,15252 10412,15252 10410,15252 10408,15251 10407,15251 10397,15251 10394,15251 10391,15251 10390,15252 10387,15252 10385,15252 10382,15253 10381,15254 10379,15255 10378,15256 10376,15257 10375,15258 10373,15261 10373,15262 10372,15264 10370,15265 10370,15267 10370,15270 10370,15272 10370,15274 10370,15276 10370,15279 10370,15281 10370,15283 10371,15286 10372,15292 10374,15297 10375,15303 10378,15310 10416,15399 10380,15399 Z M 10659,15399 L 10599,15290 10595,15284 10592,15279 10589,15274 10585,15270 10582,15265 10580,15264 10578,15262 10576,15261 10575,15259 10573,15258 10571,15256 10569,15255 10567,15254 10565,15253 10562,15252 10560,15251 10559,15250 10556,15250 10554,15249 10552,15248 10549,15248 10546,15247 10544,15247 10541,15247 10539,15247 10536,15247 10533,15247 10530,15247 10527,15247 10524,15247 10521,15247 10519,15248 10517,15249 10514,15250 10513,15250 10511,15251 10509,15252 10507,15254 10506,15255 10505,15256 10503,15258 10503,15259 10502,15261 10500,15262 10500,15264 10499,15266 10499,15267 10498,15270 10498,15272 10498,15274 10499,15277 10500,15283 10501,15285 10501,15288 10502,15290 10503,15294 10506,15300 10555,15399 10519,15399 10455,15265 10450,15253 10449,15252 10448,15250 10447,15247 10445,15245 10444,15243 10443,15242 10439,15233 10437,15228 10467,15228 10467,15228 10467,15228 10468,15229 10469,15229 10469,15229 10469,15229 10469,15229 10469,15230 10470,15231 10470,15232 10475,15241 10475,15242 10477,15243 10477,15244 10478,15245 10479,15247 10480,15250 10484,15257 10485,15257 10485,15254 10486,15250 10486,15248 10487,15247 10488,15245 10488,15244 10490,15243 10490,15241 10491,15240 10493,15238 10493,15237 10494,15236 10496,15235 10497,15234 10499,15233 10500,15232 10502,15231 10503,15230 10505,15229 10506,15229 10511,15227 10513,15227 10515,15226 10518,15226 10520,15225 10523,15225 10526,15225 10530,15225 10533,15225 10537,15225 10541,15225 10545,15225 10549,15225 10553,15226 10557,15227 10560,15227 10564,15228 10567,15229 10571,15230 10573,15232 10577,15233 10580,15234 10583,15236 10586,15237 10590,15239 10593,15241 10596,15243 10598,15245 10601,15247 10603,15250 10606,15252 10609,15255 10611,15258 10614,15261 10617,15264 10619,15267 10621,15270 10626,15277 10631,15285 10696,15399 10659,15399 Z M 10627,15191 L 10611,15165 10643,15165 10660,15191 10627,15191 Z M 10751,15399 L 10649,15228 10683,15228 10788,15399 10751,15399 Z M 10984,15399 L 10906,15290 10901,15284 10897,15279 10893,15274 10889,15270 10885,15265 10883,15264 10880,15262 10878,15261 10876,15259 10874,15258 10872,15256 10870,15255 10867,15254 10866,15253 10863,15252 10860,15251 10859,15250 10856,15250 10854,15249 10851,15248 10848,15248 10846,15247 10844,15247 10840,15247 10838,15247 10835,15247 10832,15247 10829,15247 10826,15247 10824,15247 10821,15247 10819,15248 10817,15249 10814,15250 10813,15250 10811,15251 10809,15252 10808,15254 10807,15255 10806,15256 10805,15258 10805,15259 10804,15261 10803,15262 10803,15264 10802,15266 10802,15267 10802,15270 10802,15272 10803,15274 10804,15277 10805,15283 10807,15285 10808,15288 10809,15290 10811,15294 10815,15300 10881,15399 10845,15399 10758,15265 10750,15253 10749,15252 10748,15250 10747,15247 10744,15245 10743,15243 10742,15242 10736,15233 10733,15228 10764,15228 10764,15228 10764,15228 10764,15229 10765,15229 10765,15229 10766,15229 10766,15229 10766,15230 10767,15231 10768,15232 10773,15241 10774,15242 10775,15243 10776,15244 10777,15245 10778,15247 10780,15250 10785,15257 10786,15257 10786,15254 10787,15250 10786,15248 10786,15247 10787,15245 10787,15244 10788,15243 10789,15241 10790,15240 10791,15238 10791,15237 10792,15236 10793,15235 10794,15234 10796,15233 10797,15232 10798,15231 10800,15230 10801,15229 10803,15229 10807,15227 10809,15227 10811,15226 10814,15226 10816,15225 10819,15225 10822,15225 10826,15225 10829,15225 10833,15225 10837,15225 10841,15225 10845,15225 10849,15226 10853,15227 10856,15227 10860,15228 10864,15229 10867,15230 10870,15232 10874,15233 10877,15234 10880,15236 10884,15237 10888,15239 10891,15241 10895,15243 10897,15245 10901,15247 10903,15250 10907,15252 10910,15255 10913,15258 10916,15261 10919,15264 10922,15267 10925,15270 10931,15277 10937,15285 11021,15399 10984,15399 Z M 11216,15466 L 11206,15466 11201,15466 11196,15465 11193,15465 11188,15464 11182,15464 11179,15463 11175,15462 11170,15462 11165,15460 11161,15460 11158,15458 11153,15457 11149,15455 11146,15454 11141,15453 11138,15451 11134,15450 11131,15448 11127,15446 11123,15444 11121,15443 11117,15441 11111,15437 11108,15435 11105,15433 11103,15431 11100,15428 11097,15426 11095,15424 11129,15420 11133,15422 11136,15425 11140,15427 11143,15430 11147,15432 11149,15433 11152,15434 11154,15435 11156,15436 11159,15437 11160,15437 11162,15438 11165,15439 11167,15440 11170,15441 11171,15441 11174,15442 11176,15442 11179,15443 11184,15444 11189,15444 11194,15444 11199,15444 11203,15444 11205,15444 11208,15444 11211,15444 11215,15442 11220,15442 11222,15441 11224,15440 11225,15439 11227,15438 11228,15437 11229,15435 11230,15434 11231,15433 11231,15431 11232,15430 11231,15428 11231,15426 11231,15422 11229,15417 11228,15415 11226,15413 11222,15407 11218,15401 11213,15395 11190,15367 11190,15367 11190,15379 11190,15382 11189,15385 11188,15386 11186,15387 11185,15388 11184,15390 11183,15391 11181,15392 11180,15393 11179,15394 11176,15395 11174,15395 11173,15396 11170,15397 11167,15397 11166,15398 11163,15399 11160,15399 11157,15399 11154,15399 11150,15399 11146,15399 11141,15399 11136,15399 11130,15399 11126,15399 11121,15398 11116,15397 11112,15396 11106,15395 11102,15393 11096,15391 11092,15390 11087,15388 11082,15386 11078,15383 11073,15381 11069,15378 11064,15375 11060,15373 11055,15369 11050,15366 11047,15362 11042,15359 11038,15355 11034,15351 11025,15343 11017,15334 11008,15323 11000,15313 10993,15303 10987,15294 10982,15285 10976,15276 10973,15269 10971,15265 10970,15261 10969,15258 10969,15255 10968,15252 10968,15249 10968,15246 10969,15243 10970,15241 10971,15238 10972,15236 10974,15234 10975,15232 10978,15231 10981,15229 10984,15228 10987,15227 10990,15226 10993,15225 10998,15225 11003,15225 11008,15225 11014,15225 11019,15225 11025,15226 11030,15227 11035,15228 11041,15229 11047,15231 11052,15233 11058,15235 11063,15238 11070,15241 11075,15243 11080,15246 11086,15250 11092,15254 11097,15257 11098,15257 11090,15248 11088,15245 11086,15243 11085,15242 11084,15241 11084,15240 11083,15238 11076,15231 11076,15229 11076,15229 11076,15229 11075,15228 11075,15228 11075,15228 11075,15228 11107,15228 11111,15233 11111,15234 11112,15234 11114,15236 11115,15238 11116,15240 11116,15241 11126,15252 11136,15263 11249,15394 11257,15402 11263,15411 11267,15418 11271,15425 11273,15431 11274,15437 11274,15440 11274,15443 11274,15446 11273,15448 11271,15450 11269,15452 11268,15454 11266,15455 11264,15458 11261,15459 11258,15460 11255,15461 11251,15462 11246,15463 11242,15464 11237,15464 11228,15466 11216,15466 Z M 11144,15313 L 11137,15305 11129,15296 11126,15293 11122,15290 11118,15286 11114,15283 11107,15276 11102,15274 11099,15271 11095,15268 11092,15266 11088,15264 11084,15262 11081,15260 11077,15258 11074,15256 11071,15255 11066,15253 11063,15252 11060,15251 11056,15250 11053,15249 11050,15248 11047,15247 11045,15247 11042,15247 11039,15246 11036,15246 11034,15246 11031,15246 11028,15246 11026,15247 11023,15247 11020,15247 11018,15248 11016,15249 11014,15250 11013,15251 11012,15252 11011,15253 11010,15255 11009,15256 11008,15258 11009,15260 11009,15262 11009,15264 11009,15266 11010,15269 11011,15272 11012,15274 11013,15276 11016,15283 11020,15290 11025,15296 11030,15305 11037,15313 11044,15322 11051,15330 11058,15337 11064,15344 11072,15350 11075,15353 11077,15355 11081,15358 11083,15360 11087,15362 11090,15364 11094,15366 11096,15368 11100,15370 11103,15371 11106,15373 11109,15373 11112,15375 11115,15375 11118,15376 11121,15377 11124,15377 11128,15378 11131,15378 11135,15379 11138,15379 11141,15379 11145,15379 11147,15379 11149,15378 11152,15378 11154,15377 11156,15377 11158,15376 11160,15375 11162,15375 11164,15373 11165,15372 11166,15370 11167,15369 11168,15368 11168,15366 11169,15364 11169,15359 11169,15357 11168,15355 11168,15352 11167,15349 11167,15346 11165,15343 11164,15340 11162,15337 11160,15333 11157,15330 11151,15321 11144,15313 Z"/>
        <path fill="none" stroke="rgb(238,238,238)" stroke-width="18" stroke-linejoin="miter" d="M 8230,15399 L 8339,15250 8342,15246 8346,15242 8349,15238 8352,15234 8364,15218 8367,15214 8370,15211 8373,15207 8376,15203 8372,15207 8368,15211 8359,15219 8343,15234 8339,15237 8335,15241 8331,15244 8327,15247 8140,15399 8112,15399 8164,15247 8164,15246 8165,15245 8165,15243 8166,15242 8169,15235 8173,15227 8176,15220 8184,15203 8177,15212 8173,15216 8171,15220 8157,15236 8146,15250 8020,15399 7986,15399 8178,15176 8224,15176 8168,15330 8168,15332 8167,15334 8166,15336 8165,15339 8165,15340 8163,15341 8162,15344 8162,15346 8161,15349 8156,15359 8154,15363 8154,15364 8153,15365 8153,15366 8152,15366 8153,15366 8153,15365 8154,15364 8156,15363 8160,15359 8171,15349 8184,15339 8187,15336 8189,15334 8194,15330 8381,15176 8425,15176 8266,15399 8230,15399 Z"/>
        <path fill="none" stroke="rgb(238,238,238)" stroke-width="18" stroke-linejoin="miter" d="M 8383,15402 L 8374,15402 8367,15402 8364,15401 8361,15400 8358,15399 8355,15399 8353,15398 8350,15397 8349,15395 8346,15395 8345,15393 8344,15392 8343,15390 8342,15388 8341,15387 8340,15385 8339,15383 8339,15381 8339,15379 8339,15377 8340,15373 8341,15368 8344,15362 8346,15357 8350,15351 8353,15347 8356,15343 8359,15339 8363,15336 8366,15332 8370,15330 8374,15326 8378,15323 8381,15321 8385,15319 8388,15317 8393,15314 8397,15312 8401,15310 8406,15308 8410,15307 8414,15305 8418,15304 8422,15303 8427,15301 8430,15301 8435,15299 8440,15299 8445,15298 8453,15297 8462,15296 8471,15296 8479,15296 8527,15295 8533,15285 8536,15281 8537,15276 8539,15274 8539,15272 8540,15270 8540,15267 8541,15264 8541,15263 8542,15261 8542,15259 8541,15258 8541,15257 8540,15257 8540,15256 8540,15256 8538,15254 8538,15254 8537,15252 8536,15252 8535,15251 8533,15250 8531,15250 8530,15249 8528,15248 8526,15248 8525,15247 8522,15247 8520,15247 8518,15247 8515,15247 8512,15247 8509,15247 8507,15247 8503,15247 8493,15248 8491,15248 8489,15249 8487,15250 8485,15250 8484,15250 8481,15251 8480,15252 8477,15252 8476,15253 8474,15254 8472,15255 8470,15256 8467,15257 8466,15258 8462,15261 8460,15262 8459,15263 8457,15265 8455,15267 8454,15268 8451,15270 8451,15272 8449,15274 8414,15271 8420,15266 8424,15262 8427,15259 8429,15257 8432,15255 8435,15253 8437,15251 8441,15249 8443,15247 8446,15245 8450,15243 8453,15241 8456,15239 8459,15238 8463,15236 8466,15235 8470,15234 8474,15232 8478,15232 8482,15230 8485,15229 8490,15229 8494,15228 8498,15227 8502,15227 8508,15226 8511,15226 8517,15225 8527,15225 8536,15225 8544,15226 8551,15227 8558,15229 8560,15230 8564,15231 8566,15232 8568,15234 8570,15235 8573,15236 8574,15238 8575,15240 8576,15242 8577,15244 8578,15246 8578,15248 8579,15253 8579,15258 8577,15263 8576,15270 8573,15276 8569,15283 8526,15356 8524,15359 8522,15362 8521,15365 8520,15367 8520,15370 8518,15372 8518,15374 8519,15375 8518,15376 8519,15377 8519,15377 8519,15378 8520,15379 8521,15379 8521,15379 8521,15380 8522,15380 8523,15381 8524,15381 8526,15381 8527,15381 8528,15381 8530,15381 8531,15381 8538,15381 8538,15381 8538,15381 8539,15381 8539,15381 8539,15381 8540,15381 8542,15381 8543,15380 8544,15380 8533,15398 8518,15400 8516,15400 8515,15400 8511,15401 8508,15401 8506,15401 8503,15401 8500,15401 8498,15401 8496,15401 8494,15400 8492,15400 8490,15399 8488,15399 8486,15399 8485,15398 8484,15397 8483,15397 8481,15396 8481,15395 8479,15394 8479,15393 8478,15392 8478,15390 8477,15390 8477,15388 8477,15387 8478,15386 8478,15384 8477,15383 8478,15381 8478,15380 8479,15378 8479,15377 8480,15375 8480,15373 8482,15370 8483,15368 8484,15366 8483,15366 8477,15370 8472,15374 8461,15381 8455,15384 8450,15387 8438,15393 8435,15393 8431,15395 8424,15397 8418,15398 8412,15399 8408,15400 8404,15401 8401,15401 8397,15402 8394,15402 8390,15402 8386,15402 8383,15402 Z"/>
        <path fill="none" stroke="rgb(238,238,238)" stroke-width="18" stroke-linejoin="miter" d="M 8404,15381 L 8408,15381 8413,15381 8417,15380 8422,15379 8426,15379 8431,15378 8434,15377 8438,15376 8443,15375 8447,15373 8450,15372 8454,15370 8457,15369 8461,15367 8464,15366 8468,15364 8471,15361 8475,15359 8478,15357 8480,15355 8484,15353 8486,15350 8489,15348 8491,15346 8496,15342 8497,15339 8500,15337 8501,15335 8503,15333 8505,15331 8506,15329 8514,15315 8476,15315 8470,15315 8462,15316 8450,15317 8447,15317 8444,15317 8441,15318 8438,15319 8435,15319 8432,15320 8429,15321 8427,15322 8424,15323 8421,15324 8418,15326 8415,15327 8412,15328 8410,15330 8407,15331 8405,15333 8402,15335 8400,15337 8397,15339 8395,15341 8393,15343 8391,15346 8389,15349 8387,15352 8384,15355 8384,15358 8381,15361 8381,15364 8381,15367 8380,15368 8381,15369 8381,15370 8381,15371 8382,15373 8382,15373 8383,15375 8385,15376 8385,15377 8386,15377 8388,15378 8389,15378 8390,15379 8391,15379 8393,15379 8395,15380 8396,15380 8398,15381 8400,15381 8404,15381 Z"/>
        <path fill="none" stroke="rgb(238,238,238)" stroke-width="18" stroke-linejoin="miter" d="M 8636,15313 L 8633,15320 8630,15327 8624,15340 8622,15346 8622,15349 8622,15352 8622,15354 8621,15357 8622,15359 8622,15361 8623,15363 8623,15365 8624,15367 8625,15369 8627,15370 8628,15372 8629,15373 8629,15373 8631,15374 8632,15375 8633,15376 8636,15377 8639,15378 8642,15379 8644,15379 8648,15379 8650,15380 8655,15380 8659,15380 8665,15379 8670,15379 8672,15379 8674,15378 8676,15377 8678,15377 8681,15376 8683,15375 8685,15375 8687,15374 8691,15372 8693,15370 8696,15370 8697,15368 8699,15367 8704,15364 8707,15361 8710,15358 8714,15355 8717,15350 8720,15346 8755,15348 8752,15353 8749,15356 8748,15359 8746,15361 8744,15364 8740,15366 8738,15368 8735,15371 8733,15373 8729,15375 8726,15378 8723,15380 8720,15382 8717,15384 8714,15386 8709,15388 8707,15389 8703,15390 8698,15393 8694,15394 8690,15395 8686,15396 8682,15397 8678,15399 8673,15399 8668,15400 8664,15401 8659,15402 8654,15402 8649,15402 8645,15402 8638,15402 8633,15402 8626,15402 8621,15401 8617,15399 8611,15399 8608,15397 8603,15395 8600,15394 8597,15392 8593,15390 8591,15388 8590,15385 8588,15382 8586,15379 8584,15377 8583,15374 8583,15370 8582,15367 8582,15364 8582,15360 8583,15357 8583,15352 8584,15348 8587,15340 8589,15332 8593,15323 8598,15314 8603,15305 8609,15297 8611,15294 8614,15290 8617,15287 8620,15283 8625,15277 8631,15271 8633,15268 8636,15265 8640,15263 8642,15260 8645,15258 8648,15255 8651,15253 8654,15251 8657,15249 8660,15247 8663,15245 8666,15243 8669,15242 8672,15241 8675,15239 8677,15238 8680,15236 8683,15235 8686,15234 8689,15233 8691,15232 8695,15231 8698,15230 8701,15229 8707,15228 8713,15227 8724,15226 8730,15225 8736,15225 8740,15225 8743,15225 8747,15226 8751,15226 8754,15227 8757,15227 8761,15228 8764,15229 8766,15230 8769,15231 8772,15232 8774,15234 8775,15235 8778,15236 8780,15238 8781,15240 8782,15242 8783,15243 8785,15245 8786,15247 8787,15250 8788,15252 8788,15254 8789,15256 8789,15258 8790,15261 8790,15263 8790,15266 8788,15271 8788,15276 8751,15279 8752,15275 8753,15272 8753,15269 8753,15265 8753,15263 8752,15261 8751,15258 8749,15256 8748,15255 8747,15254 8746,15253 8745,15252 8744,15252 8742,15251 8741,15250 8739,15250 8737,15249 8735,15249 8732,15248 8728,15247 8723,15247 8719,15247 8716,15247 8712,15248 8709,15248 8705,15249 8702,15250 8699,15251 8696,15252 8693,15253 8690,15254 8687,15255 8685,15256 8683,15258 8679,15260 8678,15261 8675,15263 8672,15265 8669,15267 8667,15270 8665,15272 8662,15275 8660,15278 8654,15284 8646,15298 8641,15305 8636,15313 Z"/>
        <path fill="none" stroke="rgb(238,238,238)" stroke-width="18" stroke-linejoin="miter" d="M 8868,15257 L 8870,15255 8872,15253 8875,15251 8877,15250 8880,15247 8881,15246 8884,15244 8887,15243 8889,15241 8891,15240 8893,15238 8896,15237 8897,15236 8900,15234 8902,15234 8905,15232 8907,15232 8910,15230 8912,15229 8914,15229 8917,15228 8919,15228 8925,15227 8927,15226 8930,15226 8932,15225 8935,15225 8939,15225 8941,15225 8944,15225 8947,15225 8952,15225 8955,15225 8959,15225 8964,15226 8967,15227 8970,15227 8974,15228 8976,15229 8979,15231 8982,15232 8983,15233 8985,15235 8987,15236 8988,15238 8990,15240 8991,15242 8992,15244 8992,15246 8994,15248 8994,15250 8994,15253 8994,15256 8994,15261 8993,15266 8992,15272 8991,15279 8989,15285 8948,15399 8911,15399 8952,15290 8953,15285 8955,15281 8956,15278 8956,15276 8957,15274 8957,15272 8957,15270 8957,15267 8957,15265 8957,15264 8957,15262 8957,15261 8956,15259 8956,15258 8955,15256 8955,15255 8953,15254 8953,15253 8951,15252 8949,15251 8948,15250 8946,15250 8945,15249 8944,15249 8942,15248 8941,15247 8938,15247 8935,15247 8932,15247 8929,15247 8926,15247 8923,15247 8920,15247 8917,15247 8914,15247 8911,15248 8908,15249 8905,15250 8902,15250 8900,15251 8897,15252 8894,15254 8891,15255 8889,15256 8886,15258 8885,15259 8882,15261 8879,15263 8878,15264 8875,15266 8873,15268 8870,15270 8868,15272 8864,15277 8861,15282 8857,15287 8855,15290 8853,15292 8852,15295 8851,15298 8807,15399 8771,15399 8877,15165 8908,15165 8882,15225 8878,15236 8873,15245 8873,15246 8872,15247 8872,15250 8870,15252 8869,15252 8869,15253 8867,15257 8868,15257 Z"/>
        <path fill="none" stroke="rgb(238,238,238)" stroke-width="18" stroke-linejoin="miter" d="M 9071,15191 L 9080,15165 9112,15165 9104,15191 9071,15191 Z"/>
        <path fill="none" stroke="rgb(238,238,238)" stroke-width="18" stroke-linejoin="miter" d="M 9004,15399 L 9059,15228 9093,15228 9041,15399 9004,15399 Z"/>
        <path fill="none" stroke="rgb(238,238,238)" stroke-width="18" stroke-linejoin="miter" d="M 9237,15399 L 9259,15290 9260,15284 9260,15279 9261,15274 9261,15270 9261,15265 9260,15264 9259,15262 9259,15261 9258,15259 9257,15258 9256,15256 9256,15255 9254,15254 9253,15253 9251,15252 9250,15251 9249,15250 9247,15250 9245,15249 9243,15248 9240,15248 9238,15247 9236,15247 9233,15247 9231,15247 9228,15247 9225,15247 9222,15247 9219,15247 9216,15247 9213,15247 9211,15248 9208,15249 9205,15250 9203,15250 9200,15251 9197,15252 9195,15254 9192,15255 9190,15256 9188,15258 9186,15259 9184,15261 9182,15262 9180,15264 9177,15266 9176,15267 9173,15270 9172,15272 9170,15274 9169,15277 9165,15283 9165,15285 9163,15288 9162,15290 9160,15294 9159,15300 9133,15399 9097,15399 9134,15265 9138,15253 9138,15252 9138,15250 9139,15247 9139,15245 9139,15243 9140,15242 9142,15233 9143,15228 9174,15228 9174,15228 9174,15228 9174,15229 9175,15229 9175,15229 9175,15229 9175,15229 9175,15230 9174,15231 9174,15232 9172,15241 9172,15242 9172,15243 9172,15244 9172,15245 9171,15247 9171,15250 9169,15257 9170,15257 9173,15254 9176,15250 9178,15248 9179,15247 9182,15245 9183,15244 9185,15243 9187,15241 9189,15240 9191,15238 9193,15237 9195,15236 9197,15235 9200,15234 9202,15233 9204,15232 9206,15231 9208,15230 9210,15229 9213,15229 9218,15227 9221,15227 9223,15226 9226,15226 9229,15225 9232,15225 9235,15225 9239,15225 9242,15225 9246,15225 9250,15225 9254,15225 9258,15225 9261,15226 9265,15227 9267,15227 9270,15228 9273,15229 9276,15230 9278,15232 9280,15233 9282,15234 9284,15236 9286,15237 9288,15239 9290,15241 9291,15243 9292,15245 9293,15247 9294,15250 9295,15252 9295,15255 9296,15258 9296,15261 9296,15264 9297,15267 9296,15270 9296,15277 9295,15285 9274,15399 9237,15399 Z"/>
        <path fill="none" stroke="rgb(238,238,238)" stroke-width="18" stroke-linejoin="miter" d="M 9367,15320 L 9366,15323 9366,15326 9366,15332 9367,15339 9367,15344 9369,15350 9371,15355 9373,15357 9374,15359 9376,15361 9377,15364 9378,15366 9380,15368 9382,15369 9384,15371 9387,15373 9389,15374 9391,15375 9394,15377 9397,15377 9399,15379 9402,15379 9407,15380 9410,15380 9413,15381 9417,15381 9422,15381 9427,15381 9433,15380 9438,15380 9442,15379 9448,15378 9450,15377 9452,15377 9455,15376 9456,15375 9458,15374 9460,15373 9464,15371 9467,15369 9470,15367 9473,15365 9475,15363 9477,15360 9480,15357 9481,15355 9511,15362 9509,15366 9508,15369 9504,15373 9502,15376 9501,15378 9498,15379 9496,15381 9494,15383 9492,15384 9489,15386 9487,15388 9484,15389 9481,15390 9478,15392 9475,15393 9473,15394 9468,15395 9465,15397 9461,15397 9457,15399 9452,15399 9449,15400 9445,15401 9440,15402 9435,15402 9430,15402 9425,15402 9420,15402 9408,15402 9401,15402 9396,15401 9390,15400 9386,15399 9381,15398 9377,15397 9372,15395 9368,15393 9364,15391 9360,15389 9357,15387 9353,15385 9350,15382 9347,15379 9345,15377 9342,15374 9340,15370 9339,15367 9334,15359 9332,15352 9331,15343 9331,15333 9330,15323 9332,15312 9333,15307 9335,15301 9338,15290 9341,15281 9346,15272 9348,15267 9351,15264 9354,15260 9357,15256 9360,15254 9363,15250 9367,15247 9370,15245 9373,15242 9377,15240 9381,15238 9384,15236 9388,15234 9393,15232 9397,15231 9401,15229 9405,15228 9409,15227 9414,15227 9418,15226 9423,15226 9427,15225 9432,15225 9436,15225 9442,15225 9448,15226 9454,15226 9460,15227 9465,15228 9469,15229 9474,15231 9476,15232 9478,15232 9482,15234 9486,15236 9490,15238 9492,15241 9495,15243 9498,15245 9501,15248 9504,15251 9506,15254 9508,15257 9512,15264 9514,15272 9517,15280 9519,15288 9520,15297 9521,15306 9520,15316 9520,15320 9367,15320 Z"/>
        <path fill="none" stroke="rgb(238,238,238)" stroke-width="18" stroke-linejoin="miter" d="M 9486,15298 L 9487,15291 9486,15285 9486,15279 9484,15274 9483,15271 9482,15269 9481,15267 9479,15265 9479,15263 9477,15261 9475,15259 9473,15258 9469,15255 9467,15254 9465,15253 9463,15252 9460,15251 9459,15250 9457,15249 9454,15248 9451,15247 9449,15247 9446,15247 9440,15246 9434,15246 9432,15246 9430,15246 9427,15247 9425,15247 9421,15247 9416,15249 9411,15250 9406,15252 9402,15254 9398,15256 9394,15258 9392,15260 9390,15262 9387,15264 9385,15266 9383,15268 9382,15270 9379,15273 9376,15279 9373,15285 9372,15291 9370,15298 9486,15298 Z"/>
        <path fill="none" stroke="rgb(238,238,238)" stroke-width="18" stroke-linejoin="miter" d="M 9686,15399 L 9678,15176 9711,15176 9722,15374 9867,15374 9870,15399 9686,15399 Z"/>
        <path fill="none" stroke="rgb(238,238,238)" stroke-width="18" stroke-linejoin="miter" d="M 9925,15320 L 9926,15323 9926,15326 9928,15332 9931,15339 9933,15344 9937,15350 9941,15355 9943,15357 9945,15359 9947,15361 9949,15364 9951,15366 9954,15368 9956,15369 9958,15371 9962,15373 9964,15374 9967,15375 9970,15377 9974,15377 9976,15379 9979,15379 9984,15380 9987,15380 9990,15381 9995,15381 9999,15381 10005,15381 10010,15380 10015,15380 10019,15379 10024,15378 10026,15377 10028,15377 10030,15376 10031,15375 10033,15374 10035,15373 10038,15371 10041,15369 10043,15367 10045,15365 10047,15363 10048,15360 10050,15357 10050,15355 10083,15362 10082,15366 10081,15369 10079,15373 10078,15376 10077,15378 10075,15379 10074,15381 10072,15383 10070,15384 10068,15386 10067,15388 10064,15389 10062,15390 10059,15392 10056,15393 10054,15394 10050,15395 10047,15397 10044,15397 10040,15399 10036,15399 10032,15400 10028,15401 10024,15402 10019,15402 10014,15402 10009,15402 10003,15402 9991,15402 9985,15402 9979,15401 9974,15400 9969,15399 9963,15398 9959,15397 9954,15395 9949,15393 9945,15391 9940,15389 9936,15387 9932,15385 9928,15382 9924,15379 9921,15377 9917,15374 9914,15370 9912,15367 9905,15359 9901,15352 9896,15343 9894,15333 9890,15323 9888,15312 9888,15307 9888,15301 9887,15290 9888,15281 9889,15272 9891,15267 9892,15264 9894,15260 9896,15256 9898,15254 9900,15250 9903,15247 9905,15245 9908,15242 9910,15240 9914,15238 9917,15236 9920,15234 9924,15232 9928,15231 9932,15229 9935,15228 9939,15227 9944,15227 9948,15226 9953,15226 9957,15225 9961,15225 9965,15225 9971,15225 9977,15226 9983,15226 9989,15227 9995,15228 10000,15229 10005,15231 10007,15232 10010,15232 10014,15234 10018,15236 10023,15238 10026,15241 10030,15243 10034,15245 10037,15248 10041,15251 10045,15254 10047,15257 10053,15264 10058,15272 10063,15280 10067,15288 10072,15297 10075,15306 10078,15316 10079,15320 9925,15320 Z"/>
        <path fill="none" stroke="rgb(238,238,238)" stroke-width="18" stroke-linejoin="miter" d="M 10038,15298 L 10036,15291 10034,15285 10031,15279 10028,15274 10026,15271 10025,15269 10023,15267 10021,15265 10019,15263 10017,15261 10015,15259 10012,15258 10008,15255 10005,15254 10003,15253 10001,15252 9998,15251 9996,15250 9993,15249 9990,15248 9987,15247 9985,15247 9982,15247 9976,15246 9970,15246 9968,15246 9966,15246 9963,15247 9961,15247 9957,15247 9952,15249 9948,15250 9944,15252 9940,15254 9936,15256 9934,15258 9932,15260 9930,15262 9929,15264 9927,15266 9925,15268 9925,15270 9923,15273 9922,15279 9921,15285 9921,15291 9921,15298 10038,15298 Z"/>
        <path fill="none" stroke="rgb(238,238,238)" stroke-width="18" stroke-linejoin="miter" d="M 10203,15402 L 10194,15402 10187,15402 10183,15401 10180,15400 10176,15399 10173,15399 10169,15398 10166,15397 10163,15395 10160,15395 10157,15393 10154,15392 10152,15390 10149,15388 10147,15387 10144,15385 10141,15383 10139,15381 10137,15379 10135,15377 10132,15373 10128,15368 10126,15362 10123,15357 10122,15351 10120,15347 10121,15343 10119,15339 10119,15336 10120,15332 10121,15330 10121,15326 10122,15323 10124,15321 10125,15319 10127,15317 10129,15314 10131,15312 10133,15310 10136,15308 10138,15307 10141,15305 10144,15304 10147,15303 10150,15301 10153,15301 10157,15299 10161,15299 10165,15298 10173,15297 10181,15296 10189,15296 10197,15296 10244,15295 10241,15285 10239,15281 10236,15276 10236,15274 10234,15272 10233,15270 10231,15267 10228,15264 10228,15263 10226,15261 10225,15259 10223,15258 10222,15257 10221,15257 10221,15256 10219,15256 10217,15254 10216,15254 10213,15252 10212,15252 10210,15251 10207,15250 10205,15250 10203,15249 10201,15248 10199,15248 10196,15247 10193,15247 10191,15247 10189,15247 10186,15247 10183,15247 10180,15247 10178,15247 10174,15247 10166,15248 10164,15248 10162,15249 10161,15250 10159,15250 10158,15250 10156,15251 10156,15252 10154,15252 10153,15253 10151,15254 10151,15255 10150,15256 10148,15257 10147,15258 10146,15261 10146,15262 10146,15263 10145,15265 10145,15267 10146,15268 10145,15270 10146,15272 10146,15274 10109,15271 10109,15266 10109,15262 10110,15259 10110,15257 10111,15255 10112,15253 10112,15251 10114,15249 10114,15247 10115,15245 10117,15243 10118,15241 10120,15239 10121,15238 10124,15236 10126,15235 10128,15234 10131,15232 10135,15232 10137,15230 10140,15229 10144,15229 10147,15228 10150,15227 10154,15227 10159,15226 10163,15226 10167,15225 10177,15225 10186,15225 10195,15226 10204,15227 10212,15229 10215,15230 10220,15231 10223,15232 10227,15234 10230,15235 10234,15236 10236,15238 10240,15240 10243,15242 10245,15244 10248,15246 10251,15248 10256,15253 10260,15258 10264,15263 10269,15270 10272,15276 10275,15283 10302,15356 10303,15359 10304,15362 10306,15365 10307,15367 10309,15370 10310,15372 10312,15374 10313,15375 10314,15376 10315,15377 10316,15377 10316,15378 10318,15379 10319,15379 10320,15379 10320,15380 10322,15380 10323,15381 10324,15381 10326,15381 10327,15381 10329,15381 10331,15381 10332,15381 10338,15381 10338,15381 10338,15381 10339,15381 10339,15381 10339,15381 10340,15381 10342,15381 10342,15380 10343,15380 10350,15398 10337,15400 10335,15400 10333,15400 10330,15401 10327,15401 10325,15401 10323,15401 10320,15401 10317,15401 10315,15401 10313,15400 10311,15400 10308,15399 10306,15399 10303,15399 10302,15398 10300,15397 10298,15397 10296,15396 10294,15395 10292,15394 10290,15393 10289,15392 10287,15390 10286,15390 10285,15388 10283,15387 10282,15386 10281,15384 10279,15383 10279,15381 10277,15380 10277,15378 10275,15377 10274,15375 10272,15373 10272,15370 10271,15368 10270,15366 10269,15366 10267,15370 10265,15374 10262,15381 10258,15384 10256,15387 10249,15393 10247,15393 10244,15395 10240,15397 10235,15398 10230,15399 10227,15400 10224,15401 10220,15401 10217,15402 10214,15402 10211,15402 10207,15402 10203,15402 Z"/>
        <path fill="none" stroke="rgb(238,238,238)" stroke-width="18" stroke-linejoin="miter" d="M 10204,15381 L 10208,15381 10213,15381 10217,15380 10221,15379 10224,15379 10228,15378 10231,15377 10234,15376 10237,15375 10239,15373 10241,15372 10244,15370 10246,15369 10248,15367 10250,15366 10251,15364 10253,15361 10254,15359 10255,15357 10256,15355 10257,15353 10257,15350 10258,15348 10258,15346 10259,15342 10258,15339 10258,15337 10257,15335 10258,15333 10257,15331 10256,15329 10251,15315 10213,15315 10206,15315 10199,15316 10188,15317 10185,15317 10183,15317 10180,15318 10178,15319 10175,15319 10174,15320 10172,15321 10170,15322 10168,15323 10166,15324 10165,15326 10163,15327 10161,15328 10161,15330 10159,15331 10159,15333 10158,15335 10158,15337 10157,15339 10157,15341 10158,15343 10157,15346 10158,15349 10159,15352 10160,15355 10162,15358 10163,15361 10165,15364 10168,15367 10168,15368 10169,15369 10171,15370 10172,15371 10174,15373 10175,15373 10177,15375 10180,15376 10181,15377 10183,15377 10185,15378 10186,15378 10188,15379 10190,15379 10192,15379 10194,15380 10195,15380 10198,15381 10200,15381 10204,15381 Z"/>
        <path fill="none" stroke="rgb(238,238,238)" stroke-width="18" stroke-linejoin="miter" d="M 10380,15399 L 10327,15267 10322,15256 10322,15255 10321,15254 10320,15252 10318,15249 10318,15247 10317,15246 10313,15236 10312,15234 10311,15232 10311,15231 10310,15229 10309,15229 10309,15228 10341,15228 10341,15229 10342,15230 10343,15231 10343,15232 10344,15234 10345,15236 10346,15238 10347,15241 10347,15242 10348,15243 10349,15244 10350,15245 10354,15255 10357,15263 10358,15263 10358,15258 10357,15254 10358,15250 10358,15246 10359,15245 10359,15243 10359,15241 10360,15239 10361,15238 10361,15236 10362,15235 10363,15234 10363,15232 10365,15232 10366,15231 10367,15229 10369,15229 10369,15228 10373,15227 10374,15226 10376,15226 10378,15225 10380,15225 10383,15225 10385,15225 10387,15225 10390,15225 10391,15225 10392,15225 10393,15225 10394,15225 10396,15225 10398,15225 10401,15226 10402,15226 10403,15226 10403,15226 10404,15226 10416,15252 10415,15252 10414,15252 10412,15252 10410,15252 10408,15251 10407,15251 10397,15251 10394,15251 10391,15251 10390,15252 10387,15252 10385,15252 10382,15253 10381,15254 10379,15255 10378,15256 10376,15257 10375,15258 10373,15261 10373,15262 10372,15264 10370,15265 10370,15267 10370,15270 10370,15272 10370,15274 10370,15276 10370,15279 10370,15281 10370,15283 10371,15286 10372,15292 10374,15297 10375,15303 10378,15310 10416,15399 10380,15399 Z"/>
        <path fill="none" stroke="rgb(238,238,238)" stroke-width="18" stroke-linejoin="miter" d="M 10659,15399 L 10599,15290 10595,15284 10592,15279 10589,15274 10585,15270 10582,15265 10580,15264 10578,15262 10576,15261 10575,15259 10573,15258 10571,15256 10569,15255 10567,15254 10565,15253 10562,15252 10560,15251 10559,15250 10556,15250 10554,15249 10552,15248 10549,15248 10546,15247 10544,15247 10541,15247 10539,15247 10536,15247 10533,15247 10530,15247 10527,15247 10524,15247 10521,15247 10519,15248 10517,15249 10514,15250 10513,15250 10511,15251 10509,15252 10507,15254 10506,15255 10505,15256 10503,15258 10503,15259 10502,15261 10500,15262 10500,15264 10499,15266 10499,15267 10498,15270 10498,15272 10498,15274 10499,15277 10500,15283 10501,15285 10501,15288 10502,15290 10503,15294 10506,15300 10555,15399 10519,15399 10455,15265 10450,15253 10449,15252 10448,15250 10447,15247 10445,15245 10444,15243 10443,15242 10439,15233 10437,15228 10467,15228 10467,15228 10467,15228 10468,15229 10469,15229 10469,15229 10469,15229 10469,15229 10469,15230 10470,15231 10470,15232 10475,15241 10475,15242 10477,15243 10477,15244 10478,15245 10479,15247 10480,15250 10484,15257 10485,15257 10485,15254 10486,15250 10486,15248 10487,15247 10488,15245 10488,15244 10490,15243 10490,15241 10491,15240 10493,15238 10493,15237 10494,15236 10496,15235 10497,15234 10499,15233 10500,15232 10502,15231 10503,15230 10505,15229 10506,15229 10511,15227 10513,15227 10515,15226 10518,15226 10520,15225 10523,15225 10526,15225 10530,15225 10533,15225 10537,15225 10541,15225 10545,15225 10549,15225 10553,15226 10557,15227 10560,15227 10564,15228 10567,15229 10571,15230 10573,15232 10577,15233 10580,15234 10583,15236 10586,15237 10590,15239 10593,15241 10596,15243 10598,15245 10601,15247 10603,15250 10606,15252 10609,15255 10611,15258 10614,15261 10617,15264 10619,15267 10621,15270 10626,15277 10631,15285 10696,15399 10659,15399 Z"/>
        <path fill="none" stroke="rgb(238,238,238)" stroke-width="18" stroke-linejoin="miter" d="M 10627,15191 L 10611,15165 10643,15165 10660,15191 10627,15191 Z"/>
        <path fill="none" stroke="rgb(238,238,238)" stroke-width="18" stroke-linejoin="miter" d="M 10751,15399 L 10649,15228 10683,15228 10788,15399 10751,15399 Z"/>
        <path fill="none" stroke="rgb(238,238,238)" stroke-width="18" stroke-linejoin="miter" d="M 10984,15399 L 10906,15290 10901,15284 10897,15279 10893,15274 10889,15270 10885,15265 10883,15264 10880,15262 10878,15261 10876,15259 10874,15258 10872,15256 10870,15255 10867,15254 10866,15253 10863,15252 10860,15251 10859,15250 10856,15250 10854,15249 10851,15248 10848,15248 10846,15247 10844,15247 10840,15247 10838,15247 10835,15247 10832,15247 10829,15247 10826,15247 10824,15247 10821,15247 10819,15248 10817,15249 10814,15250 10813,15250 10811,15251 10809,15252 10808,15254 10807,15255 10806,15256 10805,15258 10805,15259 10804,15261 10803,15262 10803,15264 10802,15266 10802,15267 10802,15270 10802,15272 10803,15274 10804,15277 10805,15283 10807,15285 10808,15288 10809,15290 10811,15294 10815,15300 10881,15399 10845,15399 10758,15265 10750,15253 10749,15252 10748,15250 10747,15247 10744,15245 10743,15243 10742,15242 10736,15233 10733,15228 10764,15228 10764,15228 10764,15228 10764,15229 10765,15229 10765,15229 10766,15229 10766,15229 10766,15230 10767,15231 10768,15232 10773,15241 10774,15242 10775,15243 10776,15244 10777,15245 10778,15247 10780,15250 10785,15257 10786,15257 10786,15254 10787,15250 10786,15248 10786,15247 10787,15245 10787,15244 10788,15243 10789,15241 10790,15240 10791,15238 10791,15237 10792,15236 10793,15235 10794,15234 10796,15233 10797,15232 10798,15231 10800,15230 10801,15229 10803,15229 10807,15227 10809,15227 10811,15226 10814,15226 10816,15225 10819,15225 10822,15225 10826,15225 10829,15225 10833,15225 10837,15225 10841,15225 10845,15225 10849,15226 10853,15227 10856,15227 10860,15228 10864,15229 10867,15230 10870,15232 10874,15233 10877,15234 10880,15236 10884,15237 10888,15239 10891,15241 10895,15243 10897,15245 10901,15247 10903,15250 10907,15252 10910,15255 10913,15258 10916,15261 10919,15264 10922,15267 10925,15270 10931,15277 10937,15285 11021,15399 10984,15399 Z"/>
        <path fill="none" stroke="rgb(238,238,238)" stroke-width="18" stroke-linejoin="miter" d="M 11216,15466 L 11206,15466 11201,15466 11196,15465 11193,15465 11188,15464 11182,15464 11179,15463 11175,15462 11170,15462 11165,15460 11161,15460 11158,15458 11153,15457 11149,15455 11146,15454 11141,15453 11138,15451 11134,15450 11131,15448 11127,15446 11123,15444 11121,15443 11117,15441 11111,15437 11108,15435 11105,15433 11103,15431 11100,15428 11097,15426 11095,15424 11129,15420 11133,15422 11136,15425 11140,15427 11143,15430 11147,15432 11149,15433 11152,15434 11154,15435 11156,15436 11159,15437 11160,15437 11162,15438 11165,15439 11167,15440 11170,15441 11171,15441 11174,15442 11176,15442 11179,15443 11184,15444 11189,15444 11194,15444 11199,15444 11203,15444 11205,15444 11208,15444 11211,15444 11215,15442 11220,15442 11222,15441 11224,15440 11225,15439 11227,15438 11228,15437 11229,15435 11230,15434 11231,15433 11231,15431 11232,15430 11231,15428 11231,15426 11231,15422 11229,15417 11228,15415 11226,15413 11222,15407 11218,15401 11213,15395 11190,15367 11190,15367 11190,15379 11190,15382 11189,15385 11188,15386 11186,15387 11185,15388 11184,15390 11183,15391 11181,15392 11180,15393 11179,15394 11176,15395 11174,15395 11173,15396 11170,15397 11167,15397 11166,15398 11163,15399 11160,15399 11157,15399 11154,15399 11150,15399 11146,15399 11141,15399 11136,15399 11130,15399 11126,15399 11121,15398 11116,15397 11112,15396 11106,15395 11102,15393 11096,15391 11092,15390 11087,15388 11082,15386 11078,15383 11073,15381 11069,15378 11064,15375 11060,15373 11055,15369 11050,15366 11047,15362 11042,15359 11038,15355 11034,15351 11025,15343 11017,15334 11008,15323 11000,15313 10993,15303 10987,15294 10982,15285 10976,15276 10973,15269 10971,15265 10970,15261 10969,15258 10969,15255 10968,15252 10968,15249 10968,15246 10969,15243 10970,15241 10971,15238 10972,15236 10974,15234 10975,15232 10978,15231 10981,15229 10984,15228 10987,15227 10990,15226 10993,15225 10998,15225 11003,15225 11008,15225 11014,15225 11019,15225 11025,15226 11030,15227 11035,15228 11041,15229 11047,15231 11052,15233 11058,15235 11063,15238 11070,15241 11075,15243 11080,15246 11086,15250 11092,15254 11097,15257 11098,15257 11090,15248 11088,15245 11086,15243 11085,15242 11084,15241 11084,15240 11083,15238 11076,15231 11076,15229 11076,15229 11076,15229 11075,15228 11075,15228 11075,15228 11075,15228 11107,15228 11111,15233 11111,15234 11112,15234 11114,15236 11115,15238 11116,15240 11116,15241 11126,15252 11136,15263 11249,15394 11257,15402 11263,15411 11267,15418 11271,15425 11273,15431 11274,15437 11274,15440 11274,15443 11274,15446 11273,15448 11271,15450 11269,15452 11268,15454 11266,15455 11264,15458 11261,15459 11258,15460 11255,15461 11251,15462 11246,15463 11242,15464 11237,15464 11228,15466 11216,15466 Z"/>
        <path fill="none" stroke="rgb(238,238,238)" stroke-width="18" stroke-linejoin="miter" d="M 11144,15313 L 11137,15305 11129,15296 11126,15293 11122,15290 11118,15286 11114,15283 11107,15276 11102,15274 11099,15271 11095,15268 11092,15266 11088,15264 11084,15262 11081,15260 11077,15258 11074,15256 11071,15255 11066,15253 11063,15252 11060,15251 11056,15250 11053,15249 11050,15248 11047,15247 11045,15247 11042,15247 11039,15246 11036,15246 11034,15246 11031,15246 11028,15246 11026,15247 11023,15247 11020,15247 11018,15248 11016,15249 11014,15250 11013,15251 11012,15252 11011,15253 11010,15255 11009,15256 11008,15258 11009,15260 11009,15262 11009,15264 11009,15266 11010,15269 11011,15272 11012,15274 11013,15276 11016,15283 11020,15290 11025,15296 11030,15305 11037,15313 11044,15322 11051,15330 11058,15337 11064,15344 11072,15350 11075,15353 11077,15355 11081,15358 11083,15360 11087,15362 11090,15364 11094,15366 11096,15368 11100,15370 11103,15371 11106,15373 11109,15373 11112,15375 11115,15375 11118,15376 11121,15377 11124,15377 11128,15378 11131,15378 11135,15379 11138,15379 11141,15379 11145,15379 11147,15379 11149,15378 11152,15378 11154,15377 11156,15377 11158,15376 11160,15375 11162,15375 11164,15373 11165,15372 11166,15370 11167,15369 11168,15368 11168,15366 11169,15364 11169,15359 11169,15357 11168,15355 11168,15352 11167,15349 11167,15346 11165,15343 11164,15340 11162,15337 11160,15333 11157,15330 11151,15321 11144,15313 Z"/>
       </g>
      </g>
     </g>
    </g>
   </g>
  </g>
 </g>
</svg>